# xmcd
#
# Track frame offsets:
#	150
#	12900
#	26330
#	39983
#	53092
#	65902
#	80941
#	92856
#	105704
#	119134
#	132383
#	146116
#	161040
#	174731
#	186705
#	200298
#	211537
#	224242
#
# Disc length: 3158 seconds
#
# Revision: 0
# Processed by: cddbd v1.5.2PL0 Copyright (c) Steve Scherf et al.
# Submitted via: audiograbber 1.83.01
#
DISCID=1e0c5412
DTITLE=Big Bill Broonzy - Good Boy
DYEAR=1900
DGENRE=Blues
TTITLE0=I Can't Be Satisfied
TTITLE1=Saturday Night Rub
TTITLE2=Big Bill Blues
TTITLE3=Good Boy
TTITLE4=Night Time Is the Right Time
TTITLE5=Conversation With the Blues
TTITLE6=Too Many Drivers
TTITLE7=Just a Dream No 2
TTITLE8=That's All Right Baby
TTITLE9=Jivin' Mr Fuller Blues
TTITLE10=IC Blues
TTITLE11=Gettin Older Every Day
TTITLE12=Sweet Honey Bee
TTITLE13=My Last Goodbye To You
TTITLE14=Looking Up at Down
TTITLE15=All by Myself
TTITLE16=I Feel So Good
TTITLE17=Don't You Be No Fool
EXTD=
EXTT0=
EXTT1=
EXTT2=
EXTT3=
EXTT4=
EXTT5=
EXTT6=
EXTT7=
EXTT8=
EXTT9=
EXTT10=
EXTT11=
EXTT12=
EXTT13=
EXTT14=
EXTT15=
EXTT16=
EXTT17=
PLAYORDER=
